HIERARCHY
ROOT SpineBase
{
  OFFSET 0.000000 0.000000 0.000000
  CHANNELS 6 Xposition Yposition Zposition Zrotation Xrotation Yrotation
  JOINT SpineMid
  {
    OFFSET 0.000000 29.260220 0.000000
    CHANNELS 3 Zrotation Xrotation Yrotation
    JOINT SpineShoulder
    {
      OFFSET -0.051605 21.844474 -0.679483
      CHANNELS 3 Zrotation Xrotation Yrotation
      JOINT Neck
      {
        OFFSET -0.001359 7.252048 -0.488664
        CHANNELS 3 Zrotation Xrotation Yrotation
        JOINT Head
        {
          OFFSET -4.190900 13.509021 -1.286422
          CHANNELS 3 Zrotation Xrotation Yrotation
          End Site
          {
            OFFSET 0 0 0
          }
        }
      }
      JOINT ShoulderLeft
      {
        OFFSET -16.254211 -4.625029 5.073904
        CHANNELS 3 Zrotation Xrotation Yrotation
        JOINT ElbowLeft
        {
          OFFSET -1.662016 -26.161862 0.208565
          CHANNELS 3 Zrotation Xrotation Yrotation
          JOINT WristLeft
          {
            OFFSET 1.727440 -17.080339 -10.405306
            CHANNELS 3 Zrotation Xrotation Yrotation
            JOINT HandLeft
            {
              OFFSET 0.699093 -4.689820 -0.615406
              CHANNELS 3 Zrotation Xrotation Yrotation
              JOINT HandTipLeft
              {
                OFFSET -0.584960 -5.274227 -1.797068
                CHANNELS 3 Zrotation Xrotation Yrotation
                End Site
                {
                  OFFSET 0 0 0
                }
              }
              JOINT ThumbLeft
              {
                OFFSET -2.213436 0.085238 -3.946302
                CHANNELS 3 Zrotation Xrotation Yrotation
                End Site
                {
                  OFFSET 0 0 0
                }
              }
            }
          }
        }
      }
      JOINT ShoulderRight
      {
        OFFSET 14.566028 -2.324077 -6.573233
        CHANNELS 3 Zrotation Xrotation Yrotation
        JOINT ElbowRight
        {
          OFFSET 7.737444 -22.976971 1.607746
          CHANNELS 3 Zrotation Xrotation Yrotation
          JOINT WristRight
          {
            OFFSET -3.146545 -17.999715 -7.259094
            CHANNELS 3 Zrotation Xrotation Yrotation
            JOINT HandRight
            {
              OFFSET -3.602661 -6.718707 -2.731585
              CHANNELS 3 Zrotation Xrotation Yrotation
              JOINT HandTipRight
              {
                OFFSET -1.454894 -6.313256 -3.029786
                CHANNELS 3 Zrotation Xrotation Yrotation
                End Site
                {
                  OFFSET 0 0 0
                }
              }
              JOINT ThumbRight
              {
                OFFSET 1.970527 -2.833003 -2.571022
                CHANNELS 3 Zrotation Xrotation Yrotation
                End Site
                {
                  OFFSET 0 0 0
                }
              }
            }
          }
        }
      }
    }
  }
  JOINT HipLeft
  {
    OFFSET -6.162398 0.578056 -1.439125
    CHANNELS 3 Zrotation Xrotation Yrotation
    JOINT KneeLeft
    {
      OFFSET 4.784944 -30.540846 6.123324
      CHANNELS 3 Zrotation Xrotation Yrotation
      JOINT AnkleLeft
      {
        OFFSET 4.556542 -29.628363 4.022099
        CHANNELS 3 Zrotation Xrotation Yrotation
        JOINT FootLeft
        {
          OFFSET 4.402442 -6.733799 -5.791998
          CHANNELS 3 Zrotation Xrotation Yrotation
          End Site
          {
            OFFSET 0 0 0
          }
        }
      }
    }
  }
  JOINT HipRight
  {
    OFFSET 6.891970 1.261145 -5.197287
    CHANNELS 3 Zrotation Xrotation Yrotation
    JOINT KneeRight
    {
      OFFSET 6.519142 -27.026032 2.829880
      CHANNELS 3 Zrotation Xrotation Yrotation
      JOINT AnkleRight
      {
        OFFSET 2.922313 -34.240432 6.954644
        CHANNELS 3 Zrotation Xrotation Yrotation
        JOINT FootRight
        {
          OFFSET -4.983284 -6.623681 -3.732845
          CHANNELS 3 Zrotation Xrotation Yrotation
          End Site
          {
            OFFSET 0 0 0
          }
        }
      }
    }
  }
}
MOTION
Frames: 13
Frame Time: 0.033333
-36.770441 74.494479 339.282676 -0.000000 0.000000 16.060336 -0.000000 0.000000 -16.060336 -0.000000 0.000000 0.000000 -0.000000 0.000000 0.000000 0.000000 0.000000 0.000000 -0.000000 0.000000 0.000000 -0.000000 0.000000 0.000000 -0.000000 0.000000 0.000000 -0.000000 0.000000 0.000000 0.000000 0.000000 0.000000 0.000000 0.000000 0.000000 -0.000000 0.000000 0.000000 -0.000000 0.000000 0.000000 -0.000000 0.000000 0.000000 -0.000000 0.000000 0.000000 0.000000 0.000000 0.000000 0.000000 0.000000 0.000000 -0.000000 0.000000 -16.060336 -0.000000 0.000000 0.000000 -0.000000 0.000000 0.000000 0.000000 0.000000 0.000000 -0.000000 0.000000 -16.060336 -0.000000 0.000000 0.000000 -0.000000 0.000000 0.000000 0.000000 0.000000 0.000000
-36.777156 74.514004 339.286898 -0.021638 0.041813 16.013637 0.009264 -0.046160 -16.013625 -0.000000 0.000000 0.000000 -0.000000 0.000000 0.000000 0.000000 0.000000 0.000000 0.179573 -0.976670 0.065012 -1.282587 -3.314759 0.156473 6.465832 -0.858392 -1.910788 -2.373168 -0.574350 1.183836 0.000000 0.000000 0.000000 0.000000 0.000000 0.000000 -0.000000 0.000000 0.000000 -0.000000 0.000000 0.000000 0.235053 -2.361364 1.186863 0.490760 -1.997575 -0.533179 0.000000 0.000000 0.000000 0.000000 0.000000 0.000000 0.009264 -0.046160 -16.013625 -0.000000 0.000000 0.000000 -0.000000 0.000000 0.000000 0.000000 0.000000 0.000000 0.009264 -0.046160 -16.013625 -0.000000 0.000000 0.000000 -0.000000 0.000000 0.000000 0.000000 0.000000 0.000000
-36.782150 74.531965 339.304102 -0.048583 0.071023 15.982201 0.027150 -0.081654 -15.982152 -0.000000 0.000000 0.000000 0.071970 0.895373 0.284224 0.000000 0.000000 0.000000 0.357731 -1.874566 0.127811 -2.435967 -6.148112 0.270982 12.957567 -2.239946 -4.109097 -5.686892 0.286862 2.622337 0.000000 0.000000 0.000000 0.000000 0.000000 0.000000 -0.962311 0.471284 0.095624 0.479430 -1.311080 0.246105 0.853399 -3.181214 1.689638 0.939257 -3.896001 -0.866013 0.000000 0.000000 0.000000 0.000000 0.000000 0.000000 0.027150 -0.081654 -15.982152 -0.000000 0.000000 0.000000 -0.000000 0.000000 0.000000 0.000000 0.000000 0.000000 0.027150 -0.081654 -15.982152 -0.000000 0.000000 0.000000 -0.000000 0.000000 0.000000 0.000000 0.000000 0.000000
-36.785423 74.548362 339.334288 -0.080834 0.087651 15.965990 0.053607 -0.106504 -15.965878 -0.000000 0.000000 0.000000 0.078175 1.201953 0.379817 0.000000 0.000000 0.000000 0.534308 -2.694207 0.188034 -3.451574 -8.454083 0.358980 18.902742 -3.435043 -6.294168 -9.173798 1.316271 4.029041 0.000000 0.000000 0.000000 0.000000 0.000000 0.000000 -1.336410 0.648045 0.132847 0.557244 -1.591513 0.345593 1.176955 -4.010775 2.049927 1.388761 -5.650149 -0.996249 0.000000 0.000000 0.000000 0.000000 0.000000 0.000000 0.053607 -0.106504 -15.965878 -0.878128 -0.156633 -0.144642 0.877733 0.158831 0.142225 0.000000 0.000000 0.000000 0.053607 -0.106504 -15.965878 -0.000000 0.000000 0.000000 -0.000000 0.000000 0.000000 0.000000 0.000000 0.000000
-36.786974 74.563194 339.377457 -0.118392 0.091713 15.964953 0.088600 -0.120739 -15.964765 -0.000000 0.000000 0.000000 0.065130 1.414288 0.444617 0.000000 0.000000 0.000000 0.709162 -3.436244 0.245327 -4.325580 -10.214807 0.434854 23.803671 -3.639059 -8.261342 -12.028874 1.555443 5.009763 0.000000 0.000000 0.000000 0.000000 0.000000 0.000000 -1.640316 0.786385 0.162150 0.530567 -1.639085 0.432254 1.400902 -4.281335 2.064795 1.878970 -7.243384 -0.913440 0.000000 0.000000 0.000000 0.000000 0.000000 0.000000 0.088600 -0.120739 -15.964765 -1.032591 -0.138618 -0.162946 1.032196 0.141531 0.160422 0.000000 0.000000 0.000000 0.088600 -0.120739 -15.964765 -0.000000 0.000000 0.000000 -0.000000 0.000000 0.000000 0.000000 0.000000 0.000000
-36.786804 74.576462 339.433608 -0.161259 0.083221 15.979029 0.132119 -0.124398 -15.978769 -0.000000 0.000000 0.000000 0.033052 1.532081 0.478595 0.000000 0.000000 0.000000 0.882170 -4.101416 0.299348 -5.057547 -11.429983 0.510387 27.343497 -2.208751 -9.902194 -13.591293 0.462542 5.211445 0.000000 0.000000 0.000000 0.000000 0.000000 0.000000 -1.874604 0.886714 0.183038 0.401534 -1.464972 0.508776 1.514746 -3.935860 1.712944 2.443307 -8.673418 -0.597126 0.000000 0.000000 0.000000 0.000000 0.000000 0.000000 0.132119 -0.124398 -15.978769 -1.119577 -0.085943 -0.166279 1.119324 0.089175 0.164568 0.000000 0.000000 0.000000 0.132119 -0.124398 -15.978769 0.819817 0.123601 0.176113 0.241412 -0.364878 -0.594527 0.000000 0.000000 0.000000
-36.777676 74.592437 339.491988 -0.195762 0.073007 16.053682 0.167939 -0.124295 -16.053375 -0.000000 0.000000 0.000000 0.084938 2.049157 0.643287 0.000000 0.000000 0.000000 1.125820 -4.926510 0.370676 -5.846880 -11.104813 0.800391 27.230597 6.308265 -10.457862 -9.180473 -6.194825 2.358912 0.000000 0.000000 0.000000 0.000000 0.000000 0.000000 -1.971203 0.818849 0.152857 0.338402 -2.411906 0.766528 2.620423 -4.556251 1.984245 2.517430 -8.851399 -1.194683 0.000000 0.000000 0.000000 0.000000 0.000000 0.000000 0.167939 -0.124295 -16.053375 -0.907864 0.185244 -0.093425 0.091054 -0.428796 0.639377 0.000000 0.000000 0.000000 0.167939 -0.124295 -16.053375 0.916116 0.259968 0.206141 2.345607 -0.515297 -1.880088 0.000000 0.000000 0.000000
-36.883212 74.620386 339.472953 -0.368316 0.161995 16.149554 0.308727 -0.258044 -16.148338 -0.000000 0.000000 0.000000 -0.008556 1.936412 0.601095 0.000000 0.000000 0.000000 1.351142 -5.570196 0.430802 -6.347697 -11.121866 0.905425 26.697624 11.637425 -10.648105 -5.048145 -9.403322 0.538489 0.000000 0.000000 0.000000 0.000000 0.000000 0.000000 -2.087458 0.745497 0.119336 -0.017019 -1.726057 0.881454 3.729963 -4.282617 1.162210 2.668828 -8.208608 -1.083549 0.000000 0.000000 0.000000 0.000000 0.000000 0.000000 0.308727 -0.258044 -16.148338 -0.772838 0.421994 -0.037228 -0.733437 -1.266313 0.776415 0.000000 0.000000 0.000000 1.179970 -0.224285 -15.991985 0.091961 0.103189 0.065674 4.079558 -0.438024 -3.066612 0.000000 0.000000 0.000000
-36.847282 74.626961 339.611629 -0.405376 0.032449 16.222873 0.380171 -0.144407 -16.222279 -0.899751 -0.288015 -0.062934 0.649041 1.734817 0.488577 0.000000 0.000000 0.000000 2.402681 -5.640134 0.517902 -6.587760 -10.966654 0.956285 26.538718 15.521685 -10.710299 -4.297191 -12.940899 0.255748 0.000000 0.000000 0.000000 0.000000 0.000000 0.000000 -1.262886 1.003678 0.173742 -0.543919 0.669721 0.763070 2.686071 -1.425409 -0.808207 3.024705 -9.132318 0.940464 0.000000 0.000000 0.000000 0.000000 0.000000 0.000000 0.380171 -0.144407 -16.222279 -0.942785 0.327336 -0.075077 -0.831333 -1.580382 0.773888 0.000000 0.000000 0.000000 1.275906 0.072333 -16.027680 0.088782 -0.010355 0.025125 4.492871 -0.654740 -3.170870 0.000000 0.000000 0.000000
-36.710415 74.627622 339.851439 -0.306346 -0.145995 16.137173 0.334854 0.055096 -16.137725 -0.866901 -0.181554 -0.059817 0.866715 0.182438 0.057063 0.000000 0.000000 0.000000 2.480575 -5.727730 0.524180 -6.553482 -10.970797 0.871927 24.309196 18.410031 -9.772229 -3.122166 -16.435694 0.378598 0.000000 0.000000 0.000000 0.000000 0.000000 0.000000 -1.298064 0.842238 0.148514 -1.582193 4.205958 0.701327 1.754083 6.345668 -5.424752 2.717711 -11.938069 5.591347 0.000000 0.000000 0.000000 0.000000 0.000000 0.000000 0.819459 0.714741 -15.963860 -1.302615 -0.448441 -0.279768 -2.435465 -2.045898 1.927566 0.000000 0.000000 0.000000 1.139444 0.712923 -15.875082 0.331151 -0.314226 -0.029239 3.562262 -0.929278 -2.502440 0.000000 0.000000 0.000000
-36.505910 74.616614 340.157342 -0.179134 -0.382175 15.874493 0.276843 0.318599 -15.875860 -0.960025 -0.412809 -0.068210 0.086418 -1.970034 -0.773668 0.000000 0.000000 0.000000 2.549568 -5.500247 0.520936 -6.260641 -10.838316 0.720604 21.139425 19.506367 -8.331492 -0.849615 -16.729426 0.039142 0.000000 0.000000 0.000000 0.000000 0.000000 0.000000 -0.455044 1.687474 0.419514 -4.318243 9.393957 0.523322 -0.978675 13.730255 -9.113613 3.793593 -13.865967 9.514802 0.000000 0.000000 0.000000 0.000000 0.000000 0.000000 0.457080 1.454783 -15.726936 -0.763623 -0.700151 -0.219331 -3.609623 -2.595624 2.515756 0.000000 0.000000 0.000000 0.918493 1.583121 -15.522126 0.910720 -0.637662 -0.040861 3.195633 -1.041854 -2.587432 0.000000 0.000000 0.000000
-36.277857 74.583161 340.535151 -0.067930 -0.729821 15.877564 -0.559944 0.342140 -15.895278 -0.407628 -0.406191 -0.053666 -0.095547 -4.126512 -1.660070 0.000000 0.000000 0.000000 2.533861 -4.880049 0.497382 -5.900963 -10.902152 0.585936 19.890003 19.693148 -7.742802 0.918302 -18.470573 0.266552 0.000000 0.000000 0.000000 0.000000 0.000000 0.000000 0.899922 3.351437 0.865720 -8.167489 15.721655 0.416372 -5.444585 21.504332 -11.977184 5.473846 -19.193541 13.889602 0.000000 0.000000 0.000000 0.000000 0.000000 0.000000 0.117047 2.470668 -15.738540 -0.146242 -1.115695 -0.165336 -2.676160 -2.321791 1.814218 0.000000 0.000000 0.000000 0.714712 2.566162 -15.433597 1.231532 -1.042032 -0.115243 2.558510 -0.910454 -2.414549 0.000000 0.000000 0.000000
-36.034844 74.532101 340.974816 0.022299 -1.149032 16.062260 -0.717614 0.303548 -16.078256 -0.441776 -0.504631 -0.055958 -0.254546 -5.886756 -2.436458 0.000000 0.000000 0.000000 2.217596 -4.400232 0.477216 -5.479749 -10.552115 0.591223 19.566754 18.289756 -7.606483 1.236562 -18.261372 0.497432 0.000000 0.000000 0.000000 0.000000 0.000000 0.000000 3.312653 5.379607 1.364624 -15.126209 24.439140 1.205068 -7.260742 23.606886 -14.205976 3.087678 -24.564250 15.820621 0.000000 0.000000 0.000000 0.000000 0.000000 0.000000 -0.105212 3.651951 -15.900382 0.338691 -1.658260 -0.149286 -1.452586 -1.884987 1.075201 0.000000 0.000000 0.000000 0.497067 3.622602 -15.528251 1.241797 -1.531571 -0.273668 8.097520 -0.759132 -5.577703 0.000000 0.000000 0.000000
